<mxfile host="app.diagrams.net" modified="2023-11-02T23:18:32.262Z" agent="Mozilla/5.0 (Windows NT 10.0; Win64; x64) AppleWebKit/537.36 (KHTML, like Gecko) Chrome/118.0.0.0 Safari/537.36 Edg/118.0.2088.76" etag="a_M0SbFqF47E3xK9Qo7S" version="22.0.8" type="device">
  <diagram name="Page-1" id="xmxRPIP0L_uw-VZl5J0k">
    <mxGraphModel dx="2241" dy="1066" grid="1" gridSize="10" guides="1" tooltips="1" connect="1" arrows="1" fold="1" page="1" pageScale="1" pageWidth="850" pageHeight="1100" math="0" shadow="0">
      <root>
        <mxCell id="0" />
        <mxCell id="1" parent="0" />
        <mxCell id="1ZcIljTKb-19BykYpcTP-7" value="" style="edgeStyle=orthogonalEdgeStyle;rounded=0;orthogonalLoop=1;jettySize=auto;html=1;" parent="1" source="1ZcIljTKb-19BykYpcTP-1" target="1ZcIljTKb-19BykYpcTP-6" edge="1">
          <mxGeometry relative="1" as="geometry">
            <Array as="points">
              <mxPoint x="580" y="50" />
            </Array>
          </mxGeometry>
        </mxCell>
        <mxCell id="1ZcIljTKb-19BykYpcTP-9" style="edgeStyle=orthogonalEdgeStyle;rounded=0;orthogonalLoop=1;jettySize=auto;html=1;exitX=0.5;exitY=1;exitDx=0;exitDy=0;entryX=0.5;entryY=0;entryDx=0;entryDy=0;" parent="1" source="1ZcIljTKb-19BykYpcTP-1" target="1ZcIljTKb-19BykYpcTP-4" edge="1">
          <mxGeometry relative="1" as="geometry" />
        </mxCell>
        <mxCell id="1ZcIljTKb-19BykYpcTP-1" value="&lt;font style=&quot;font-size: 36px;&quot;&gt;Main&lt;/font&gt;" style="rounded=0;whiteSpace=wrap;html=1;" parent="1" vertex="1">
          <mxGeometry x="360" y="40" width="120" height="60" as="geometry" />
        </mxCell>
        <mxCell id="1ZcIljTKb-19BykYpcTP-10" style="edgeStyle=orthogonalEdgeStyle;rounded=0;orthogonalLoop=1;jettySize=auto;html=1;exitX=1;exitY=0.5;exitDx=0;exitDy=0;entryX=0;entryY=0.75;entryDx=0;entryDy=0;" parent="1" source="1ZcIljTKb-19BykYpcTP-2" target="1ZcIljTKb-19BykYpcTP-1" edge="1">
          <mxGeometry relative="1" as="geometry" />
        </mxCell>
        <mxCell id="1ZcIljTKb-19BykYpcTP-2" value="&lt;font style=&quot;font-size: 36px;&quot;&gt;Input&lt;/font&gt;" style="whiteSpace=wrap;html=1;rounded=0;" parent="1" vertex="1">
          <mxGeometry x="200" y="55" width="120" height="60" as="geometry" />
        </mxCell>
        <mxCell id="1ZcIljTKb-19BykYpcTP-8" style="edgeStyle=orthogonalEdgeStyle;rounded=0;orthogonalLoop=1;jettySize=auto;html=1;exitX=0.5;exitY=0;exitDx=0;exitDy=0;entryX=0.5;entryY=1;entryDx=0;entryDy=0;" parent="1" source="1ZcIljTKb-19BykYpcTP-4" target="1ZcIljTKb-19BykYpcTP-1" edge="1">
          <mxGeometry relative="1" as="geometry" />
        </mxCell>
        <mxCell id="xVI_SBBzscoy6SofADEY-4" value="" style="edgeStyle=orthogonalEdgeStyle;rounded=0;orthogonalLoop=1;jettySize=auto;html=1;" edge="1" parent="1" source="1ZcIljTKb-19BykYpcTP-4" target="xVI_SBBzscoy6SofADEY-3">
          <mxGeometry relative="1" as="geometry" />
        </mxCell>
        <mxCell id="1ZcIljTKb-19BykYpcTP-4" value="&lt;font style=&quot;font-size: 24px;&quot;&gt;Sort&lt;/font&gt;" style="whiteSpace=wrap;html=1;rounded=0;" parent="1" vertex="1">
          <mxGeometry x="250" y="160" width="120" height="60" as="geometry" />
        </mxCell>
        <mxCell id="1ZcIljTKb-19BykYpcTP-6" value="&lt;font style=&quot;font-size: 36px;&quot;&gt;Display&lt;/font&gt;" style="whiteSpace=wrap;html=1;rounded=0;" parent="1" vertex="1">
          <mxGeometry x="490" y="80" width="120" height="60" as="geometry" />
        </mxCell>
        <mxCell id="1ZcIljTKb-19BykYpcTP-11" value="array" style="text;html=1;strokeColor=none;fillColor=none;align=center;verticalAlign=middle;whiteSpace=wrap;rounded=0;" parent="1" vertex="1">
          <mxGeometry x="310" y="55" width="60" height="30" as="geometry" />
        </mxCell>
        <mxCell id="xVI_SBBzscoy6SofADEY-1" value="array" style="text;html=1;strokeColor=none;fillColor=none;align=center;verticalAlign=middle;whiteSpace=wrap;rounded=0;" vertex="1" parent="1">
          <mxGeometry x="360" y="100" width="60" height="30" as="geometry" />
        </mxCell>
        <mxCell id="xVI_SBBzscoy6SofADEY-2" value="array" style="text;html=1;strokeColor=none;fillColor=none;align=center;verticalAlign=middle;whiteSpace=wrap;rounded=0;" vertex="1" parent="1">
          <mxGeometry x="470" y="50" width="60" height="30" as="geometry" />
        </mxCell>
        <mxCell id="xVI_SBBzscoy6SofADEY-5" style="edgeStyle=orthogonalEdgeStyle;rounded=0;orthogonalLoop=1;jettySize=auto;html=1;exitX=0;exitY=0.5;exitDx=0;exitDy=0;entryX=1;entryY=0.5;entryDx=0;entryDy=0;" edge="1" parent="1" source="xVI_SBBzscoy6SofADEY-3" target="1ZcIljTKb-19BykYpcTP-4">
          <mxGeometry relative="1" as="geometry" />
        </mxCell>
        <mxCell id="xVI_SBBzscoy6SofADEY-3" value="&lt;span style=&quot;font-size: 24px;&quot;&gt;Combine&lt;/span&gt;" style="whiteSpace=wrap;html=1;rounded=0;" vertex="1" parent="1">
          <mxGeometry x="490" y="160" width="120" height="60" as="geometry" />
        </mxCell>
        <mxCell id="xVI_SBBzscoy6SofADEY-6" value="source, destination, &lt;br&gt;iBegin1, iBegin2, &lt;br&gt;iEnd2" style="text;html=1;align=center;verticalAlign=middle;resizable=0;points=[];autosize=1;strokeColor=none;fillColor=none;" vertex="1" parent="1">
          <mxGeometry x="370" y="140" width="130" height="60" as="geometry" />
        </mxCell>
      </root>
    </mxGraphModel>
  </diagram>
</mxfile>
